<mxfile host="app.diagrams.net" modified="2024-01-16T13:26:08.739Z" agent="Mozilla/5.0 (Macintosh; Intel Mac OS X 10_15_7) AppleWebKit/537.36 (KHTML, like Gecko) Chrome/120.0.0.0 Safari/537.36" etag="2qI1lsNwwvIOBdAfHSb9" version="21.2.9" type="device" pages="2">
  <diagram name="architecture" id="IS3r6yZVefa7Z-dyXV1z">
    <mxGraphModel dx="940" dy="626" grid="1" gridSize="10" guides="1" tooltips="1" connect="1" arrows="1" fold="1" page="1" pageScale="1" pageWidth="1169" pageHeight="827" math="1" shadow="0">
      <root>
        <mxCell id="0" />
        <mxCell id="1" parent="0" />
        <mxCell id="YjtGd6nvBWsh4un9QGDy-16" value="Device" style="rounded=0;whiteSpace=wrap;html=1;fontFamily=Times New Roman;fontSize=18;fontStyle=0;align=center;verticalAlign=top;spacingLeft=0;fillColor=#dae8fc;strokeColor=#6c8ebf;" parent="1" vertex="1">
          <mxGeometry x="260" y="80" width="270" height="470" as="geometry" />
        </mxCell>
        <mxCell id="l0lbHN5EvrTeDMlcMLvd-1" value="Grid 1" style="rounded=0;whiteSpace=wrap;html=1;fontFamily=Times New Roman;verticalAlign=top;fontSize=18;fontStyle=0;align=left;labelBorderColor=none;spacingLeft=10;fillColor=#d5e8d4;strokeColor=#82b366;" parent="1" vertex="1">
          <mxGeometry x="280" y="130" width="230" height="190" as="geometry" />
        </mxCell>
        <mxCell id="YjtGd6nvBWsh4un9QGDy-8" value="Grid 2" style="rounded=0;whiteSpace=wrap;html=1;fontFamily=Times New Roman;verticalAlign=top;fontSize=18;fontStyle=0;align=left;labelBorderColor=none;spacingLeft=10;fillColor=#d5e8d4;strokeColor=#82b366;" parent="1" vertex="1">
          <mxGeometry x="280" y="330" width="230" height="190" as="geometry" />
        </mxCell>
        <mxCell id="YjtGd6nvBWsh4un9QGDy-18" value="Host" style="rounded=0;whiteSpace=wrap;html=1;fontFamily=Times New Roman;fontSize=18;fontStyle=0;align=center;verticalAlign=top;spacingLeft=0;fillColor=#dae8fc;strokeColor=#6c8ebf;" parent="1" vertex="1">
          <mxGeometry x="120" y="80" width="120" height="470" as="geometry" />
        </mxCell>
        <mxCell id="YjtGd6nvBWsh4un9QGDy-26" value="Kernel 1" style="rounded=0;whiteSpace=wrap;html=1;fontStyle=0;fontSize=18;fillColor=#d5e8d4;strokeColor=#82b366;fontFamily=Times New Roman;gradientColor=none;" parent="1" vertex="1">
          <mxGeometry x="140" y="180" width="90" height="60" as="geometry" />
        </mxCell>
        <mxCell id="YjtGd6nvBWsh4un9QGDy-27" value="Kernel 2" style="rounded=0;whiteSpace=wrap;html=1;fontStyle=0;fontSize=18;fillColor=#d5e8d4;strokeColor=#82b366;fontFamily=Times New Roman;" parent="1" vertex="1">
          <mxGeometry x="140" y="380" width="90" height="60" as="geometry" />
        </mxCell>
        <mxCell id="YjtGd6nvBWsh4un9QGDy-28" value="" style="endArrow=classic;html=1;rounded=0;strokeWidth=2;fontSize=18;fontFamily=Times New Roman;fontStyle=0" parent="1" edge="1">
          <mxGeometry width="50" height="50" relative="1" as="geometry">
            <mxPoint x="130" y="140" as="sourcePoint" />
            <mxPoint x="130" y="480" as="targetPoint" />
          </mxGeometry>
        </mxCell>
        <mxCell id="9thI-lEcoEZAPM-v9sQH-10" value="" style="shape=table;startSize=0;container=1;collapsible=0;childLayout=tableLayout;fontSize=18;fontStyle=0;fillColor=#fff2cc;strokeColor=#d6b656;fontFamily=Times New Roman;rounded=0;" parent="1" vertex="1">
          <mxGeometry x="290" y="170" width="210" height="140" as="geometry" />
        </mxCell>
        <mxCell id="9thI-lEcoEZAPM-v9sQH-11" value="" style="shape=tableRow;horizontal=0;startSize=0;swimlaneHead=0;swimlaneBody=0;strokeColor=inherit;top=0;left=0;bottom=0;right=0;collapsible=0;dropTarget=0;fillColor=none;points=[[0,0.5],[1,0.5]];portConstraint=eastwest;fontSize=18;fontStyle=0;fontFamily=Times New Roman;rounded=0;" parent="9thI-lEcoEZAPM-v9sQH-10" vertex="1">
          <mxGeometry width="210" height="70" as="geometry" />
        </mxCell>
        <mxCell id="9thI-lEcoEZAPM-v9sQH-12" value="Block&lt;br style=&quot;border-color: var(--border-color); font-size: 18px;&quot;&gt;&lt;span style=&quot;font-size: 18px;&quot;&gt;`(0, 0)`&lt;/span&gt;" style="shape=partialRectangle;html=1;whiteSpace=wrap;connectable=0;strokeColor=inherit;overflow=hidden;fillColor=none;top=0;left=0;bottom=0;right=0;pointerEvents=1;fontSize=18;fontStyle=0;fontFamily=Times New Roman;rounded=0;" parent="9thI-lEcoEZAPM-v9sQH-11" vertex="1">
          <mxGeometry width="70" height="70" as="geometry">
            <mxRectangle width="70" height="70" as="alternateBounds" />
          </mxGeometry>
        </mxCell>
        <mxCell id="9thI-lEcoEZAPM-v9sQH-13" value="Block&lt;br style=&quot;border-color: var(--border-color); font-size: 18px;&quot;&gt;&lt;span style=&quot;font-size: 18px;&quot;&gt;`(1, 0)`&lt;/span&gt;" style="shape=partialRectangle;html=1;whiteSpace=wrap;connectable=0;strokeColor=inherit;overflow=hidden;fillColor=none;top=0;left=0;bottom=0;right=0;pointerEvents=1;fontSize=18;fontStyle=0;fontFamily=Times New Roman;rounded=0;" parent="9thI-lEcoEZAPM-v9sQH-11" vertex="1">
          <mxGeometry x="70" width="70" height="70" as="geometry">
            <mxRectangle width="70" height="70" as="alternateBounds" />
          </mxGeometry>
        </mxCell>
        <mxCell id="9thI-lEcoEZAPM-v9sQH-14" value="Block&lt;br style=&quot;border-color: var(--border-color); font-size: 18px;&quot;&gt;&lt;span style=&quot;font-size: 18px;&quot;&gt;`(2, 0)`&lt;/span&gt;" style="shape=partialRectangle;html=1;whiteSpace=wrap;connectable=0;strokeColor=inherit;overflow=hidden;fillColor=none;top=0;left=0;bottom=0;right=0;pointerEvents=1;fontSize=18;fontStyle=0;fontFamily=Times New Roman;rounded=0;" parent="9thI-lEcoEZAPM-v9sQH-11" vertex="1">
          <mxGeometry x="140" width="70" height="70" as="geometry">
            <mxRectangle width="70" height="70" as="alternateBounds" />
          </mxGeometry>
        </mxCell>
        <mxCell id="9thI-lEcoEZAPM-v9sQH-15" value="" style="shape=tableRow;horizontal=0;startSize=0;swimlaneHead=0;swimlaneBody=0;strokeColor=inherit;top=0;left=0;bottom=0;right=0;collapsible=0;dropTarget=0;fillColor=none;points=[[0,0.5],[1,0.5]];portConstraint=eastwest;fontSize=18;fontStyle=0;fontFamily=Times New Roman;rounded=0;" parent="9thI-lEcoEZAPM-v9sQH-10" vertex="1">
          <mxGeometry y="70" width="210" height="70" as="geometry" />
        </mxCell>
        <mxCell id="9thI-lEcoEZAPM-v9sQH-16" value="Block&lt;br style=&quot;border-color: var(--border-color); font-size: 18px;&quot;&gt;&lt;span style=&quot;font-size: 18px;&quot;&gt;`(0, 1)`&lt;/span&gt;" style="shape=partialRectangle;html=1;whiteSpace=wrap;connectable=0;strokeColor=inherit;overflow=hidden;fillColor=none;top=0;left=0;bottom=0;right=0;pointerEvents=1;fontSize=18;fontStyle=0;fontFamily=Times New Roman;rounded=0;" parent="9thI-lEcoEZAPM-v9sQH-15" vertex="1">
          <mxGeometry width="70" height="70" as="geometry">
            <mxRectangle width="70" height="70" as="alternateBounds" />
          </mxGeometry>
        </mxCell>
        <mxCell id="9thI-lEcoEZAPM-v9sQH-17" value="Block&lt;br style=&quot;border-color: var(--border-color); font-size: 18px;&quot;&gt;&lt;span style=&quot;font-size: 18px;&quot;&gt;`(1, 1)`&lt;/span&gt;" style="shape=partialRectangle;html=1;whiteSpace=wrap;connectable=0;strokeColor=inherit;overflow=hidden;fillColor=none;top=0;left=0;bottom=0;right=0;pointerEvents=1;fontSize=18;fontStyle=0;fontFamily=Times New Roman;rounded=0;" parent="9thI-lEcoEZAPM-v9sQH-15" vertex="1">
          <mxGeometry x="70" width="70" height="70" as="geometry">
            <mxRectangle width="70" height="70" as="alternateBounds" />
          </mxGeometry>
        </mxCell>
        <mxCell id="9thI-lEcoEZAPM-v9sQH-18" value="Block&lt;br style=&quot;border-color: var(--border-color); font-size: 18px;&quot;&gt;&lt;span style=&quot;font-size: 18px;&quot;&gt;`(2, 1)`&lt;/span&gt;" style="shape=partialRectangle;html=1;whiteSpace=wrap;connectable=0;strokeColor=inherit;overflow=hidden;fillColor=none;top=0;left=0;bottom=0;right=0;pointerEvents=1;fontSize=18;fontStyle=0;fontFamily=Times New Roman;rounded=0;" parent="9thI-lEcoEZAPM-v9sQH-15" vertex="1">
          <mxGeometry x="140" width="70" height="70" as="geometry">
            <mxRectangle width="70" height="70" as="alternateBounds" />
          </mxGeometry>
        </mxCell>
        <mxCell id="9thI-lEcoEZAPM-v9sQH-1" value="" style="shape=table;startSize=0;container=1;collapsible=0;childLayout=tableLayout;fontSize=18;fontStyle=0;fillColor=#fff2cc;strokeColor=#d6b656;fontFamily=Times New Roman;rounded=0;" parent="1" vertex="1">
          <mxGeometry x="290" y="370" width="210" height="140" as="geometry" />
        </mxCell>
        <mxCell id="9thI-lEcoEZAPM-v9sQH-2" value="" style="shape=tableRow;horizontal=0;startSize=0;swimlaneHead=0;swimlaneBody=0;strokeColor=inherit;top=0;left=0;bottom=0;right=0;collapsible=0;dropTarget=0;fillColor=none;points=[[0,0.5],[1,0.5]];portConstraint=eastwest;fontSize=18;fontStyle=0;fontFamily=Times New Roman;rounded=0;" parent="9thI-lEcoEZAPM-v9sQH-1" vertex="1">
          <mxGeometry width="210" height="70" as="geometry" />
        </mxCell>
        <mxCell id="9thI-lEcoEZAPM-v9sQH-3" value="Block&lt;br style=&quot;border-color: var(--border-color); font-size: 18px;&quot;&gt;&lt;span style=&quot;font-size: 18px;&quot;&gt;`(0, 0)`&lt;/span&gt;" style="shape=partialRectangle;html=1;whiteSpace=wrap;connectable=0;strokeColor=inherit;overflow=hidden;fillColor=none;top=0;left=0;bottom=0;right=0;pointerEvents=1;fontSize=18;fontStyle=0;fontFamily=Times New Roman;rounded=0;" parent="9thI-lEcoEZAPM-v9sQH-2" vertex="1">
          <mxGeometry width="70" height="70" as="geometry">
            <mxRectangle width="70" height="70" as="alternateBounds" />
          </mxGeometry>
        </mxCell>
        <mxCell id="9thI-lEcoEZAPM-v9sQH-4" value="Block&lt;br style=&quot;border-color: var(--border-color); font-size: 18px;&quot;&gt;&lt;span style=&quot;font-size: 18px;&quot;&gt;`(1, 0)`&lt;/span&gt;" style="shape=partialRectangle;html=1;whiteSpace=wrap;connectable=0;strokeColor=inherit;overflow=hidden;fillColor=none;top=0;left=0;bottom=0;right=0;pointerEvents=1;fontSize=18;fontStyle=0;fontFamily=Times New Roman;rounded=0;" parent="9thI-lEcoEZAPM-v9sQH-2" vertex="1">
          <mxGeometry x="70" width="70" height="70" as="geometry">
            <mxRectangle width="70" height="70" as="alternateBounds" />
          </mxGeometry>
        </mxCell>
        <mxCell id="9thI-lEcoEZAPM-v9sQH-5" value="Block&lt;br style=&quot;border-color: var(--border-color); font-size: 18px;&quot;&gt;&lt;span style=&quot;font-size: 18px;&quot;&gt;`(2, 0)`&lt;/span&gt;" style="shape=partialRectangle;html=1;whiteSpace=wrap;connectable=0;strokeColor=inherit;overflow=hidden;fillColor=none;top=0;left=0;bottom=0;right=0;pointerEvents=1;fontSize=18;fontStyle=0;fontFamily=Times New Roman;rounded=0;" parent="9thI-lEcoEZAPM-v9sQH-2" vertex="1">
          <mxGeometry x="140" width="70" height="70" as="geometry">
            <mxRectangle width="70" height="70" as="alternateBounds" />
          </mxGeometry>
        </mxCell>
        <mxCell id="9thI-lEcoEZAPM-v9sQH-6" value="" style="shape=tableRow;horizontal=0;startSize=0;swimlaneHead=0;swimlaneBody=0;strokeColor=inherit;top=0;left=0;bottom=0;right=0;collapsible=0;dropTarget=0;fillColor=none;points=[[0,0.5],[1,0.5]];portConstraint=eastwest;fontSize=18;fontStyle=0;fontFamily=Times New Roman;rounded=0;" parent="9thI-lEcoEZAPM-v9sQH-1" vertex="1">
          <mxGeometry y="70" width="210" height="70" as="geometry" />
        </mxCell>
        <mxCell id="9thI-lEcoEZAPM-v9sQH-7" value="Block&lt;br style=&quot;border-color: var(--border-color); font-size: 18px;&quot;&gt;&lt;span style=&quot;font-size: 18px;&quot;&gt;`(0, 1)`&lt;/span&gt;" style="shape=partialRectangle;html=1;whiteSpace=wrap;connectable=0;strokeColor=inherit;overflow=hidden;fillColor=none;top=0;left=0;bottom=0;right=0;pointerEvents=1;fontSize=18;fontStyle=0;fontFamily=Times New Roman;rounded=0;" parent="9thI-lEcoEZAPM-v9sQH-6" vertex="1">
          <mxGeometry width="70" height="70" as="geometry">
            <mxRectangle width="70" height="70" as="alternateBounds" />
          </mxGeometry>
        </mxCell>
        <mxCell id="9thI-lEcoEZAPM-v9sQH-8" value="Block&lt;br style=&quot;border-color: var(--border-color); font-size: 18px;&quot;&gt;&lt;span style=&quot;font-size: 18px;&quot;&gt;`(1, 1)`&lt;/span&gt;" style="shape=partialRectangle;html=1;whiteSpace=wrap;connectable=0;strokeColor=inherit;overflow=hidden;fillColor=none;top=0;left=0;bottom=0;right=0;pointerEvents=1;fontSize=18;fontStyle=0;fontFamily=Times New Roman;rounded=0;" parent="9thI-lEcoEZAPM-v9sQH-6" vertex="1">
          <mxGeometry x="70" width="70" height="70" as="geometry">
            <mxRectangle width="70" height="70" as="alternateBounds" />
          </mxGeometry>
        </mxCell>
        <mxCell id="9thI-lEcoEZAPM-v9sQH-9" value="Block&lt;br style=&quot;border-color: var(--border-color); font-size: 18px;&quot;&gt;&lt;span style=&quot;font-size: 18px;&quot;&gt;`(2, 1)`&lt;/span&gt;" style="shape=partialRectangle;html=1;whiteSpace=wrap;connectable=0;strokeColor=inherit;overflow=hidden;fillColor=none;top=0;left=0;bottom=0;right=0;pointerEvents=1;fontSize=18;fontStyle=0;fontFamily=Times New Roman;rounded=0;" parent="9thI-lEcoEZAPM-v9sQH-6" vertex="1">
          <mxGeometry x="140" width="70" height="70" as="geometry">
            <mxRectangle width="70" height="70" as="alternateBounds" />
          </mxGeometry>
        </mxCell>
        <mxCell id="YjtGd6nvBWsh4un9QGDy-46" value="lines" parent="0" />
        <mxCell id="YjtGd6nvBWsh4un9QGDy-51" style="rounded=0;orthogonalLoop=1;jettySize=auto;html=1;exitX=1;exitY=1;exitDx=0;exitDy=0;entryX=1;entryY=1;entryDx=0;entryDy=0;dashed=1;dashPattern=1 4;endArrow=none;endFill=0;fontSize=18;fontFamily=Times New Roman;fontStyle=1" parent="YjtGd6nvBWsh4un9QGDy-46" target="YjtGd6nvBWsh4un9QGDy-44" edge="1">
          <mxGeometry relative="1" as="geometry">
            <mxPoint x="430" y="310" as="sourcePoint" />
          </mxGeometry>
        </mxCell>
        <mxCell id="YjtGd6nvBWsh4un9QGDy-50" style="rounded=0;orthogonalLoop=1;jettySize=auto;html=1;exitX=0;exitY=1;exitDx=0;exitDy=0;entryX=0;entryY=1;entryDx=0;entryDy=0;endArrow=none;endFill=0;dashed=1;dashPattern=1 4;fontSize=18;fontFamily=Times New Roman;fontStyle=1" parent="YjtGd6nvBWsh4un9QGDy-46" target="YjtGd6nvBWsh4un9QGDy-44" edge="1">
          <mxGeometry relative="1" as="geometry">
            <mxPoint x="360" y="310" as="sourcePoint" />
          </mxGeometry>
        </mxCell>
        <mxCell id="YjtGd6nvBWsh4un9QGDy-48" style="rounded=0;orthogonalLoop=1;jettySize=auto;html=1;exitX=1;exitY=0;exitDx=0;exitDy=0;entryX=1;entryY=0;entryDx=0;entryDy=0;endArrow=none;endFill=0;dashed=1;dashPattern=1 4;fontSize=18;fontFamily=Times New Roman;fontStyle=1" parent="YjtGd6nvBWsh4un9QGDy-46" target="YjtGd6nvBWsh4un9QGDy-44" edge="1">
          <mxGeometry relative="1" as="geometry">
            <mxPoint x="430" y="240" as="sourcePoint" />
          </mxGeometry>
        </mxCell>
        <mxCell id="YjtGd6nvBWsh4un9QGDy-49" style="rounded=0;orthogonalLoop=1;jettySize=auto;html=1;exitX=0;exitY=0;exitDx=0;exitDy=0;entryX=0;entryY=0;entryDx=0;entryDy=0;dashed=1;dashPattern=1 4;endArrow=none;endFill=0;fontSize=18;fontFamily=Times New Roman;fontStyle=1" parent="YjtGd6nvBWsh4un9QGDy-46" target="YjtGd6nvBWsh4un9QGDy-44" edge="1">
          <mxGeometry relative="1" as="geometry">
            <mxPoint x="360" y="240" as="sourcePoint" />
          </mxGeometry>
        </mxCell>
        <mxCell id="9thI-lEcoEZAPM-v9sQH-53" value="" style="endArrow=classic;startArrow=none;html=1;rounded=0;startFill=0;strokeWidth=2;fontSize=18;fontFamily=Times New Roman;fontStyle=1" parent="YjtGd6nvBWsh4un9QGDy-46" edge="1">
          <mxGeometry width="50" height="50" relative="1" as="geometry">
            <mxPoint x="230" y="210" as="sourcePoint" />
            <mxPoint x="280" y="210" as="targetPoint" />
          </mxGeometry>
        </mxCell>
        <mxCell id="9thI-lEcoEZAPM-v9sQH-54" value="" style="endArrow=classic;startArrow=none;html=1;rounded=0;startFill=0;strokeWidth=2;fontSize=18;fontFamily=Times New Roman;fontStyle=1" parent="YjtGd6nvBWsh4un9QGDy-46" edge="1">
          <mxGeometry width="50" height="50" relative="1" as="geometry">
            <mxPoint x="230" y="413" as="sourcePoint" />
            <mxPoint x="280" y="413" as="targetPoint" />
          </mxGeometry>
        </mxCell>
        <mxCell id="YjtGd6nvBWsh4un9QGDy-47" value="block" parent="0" />
        <mxCell id="YjtGd6nvBWsh4un9QGDy-44" value="&lt;font style=&quot;font-size: 18px;&quot;&gt;Block `(1, 1)`&lt;/font&gt;" style="rounded=0;whiteSpace=wrap;html=1;fontFamily=Times New Roman;verticalAlign=top;fontSize=18;fontStyle=0;align=left;spacingLeft=10;container=0;fillColor=#fff2cc;strokeColor=#d6b656;" parent="YjtGd6nvBWsh4un9QGDy-47" vertex="1">
          <mxGeometry x="560" y="120" width="370" height="260" as="geometry" />
        </mxCell>
        <mxCell id="9thI-lEcoEZAPM-v9sQH-19" value="" style="shape=table;startSize=0;container=1;collapsible=0;childLayout=tableLayout;fontSize=18;fontStyle=0;fontFamily=Times New Roman;fillColor=#f8cecc;strokeColor=#b85450;fontColor=default;labelBackgroundColor=none;rounded=0;" parent="YjtGd6nvBWsh4un9QGDy-47" vertex="1">
          <mxGeometry x="570" y="160" width="350" height="210" as="geometry" />
        </mxCell>
        <mxCell id="9thI-lEcoEZAPM-v9sQH-20" value="" style="shape=tableRow;horizontal=0;startSize=0;swimlaneHead=0;swimlaneBody=0;strokeColor=inherit;top=0;left=0;bottom=0;right=0;collapsible=0;dropTarget=0;fillColor=none;points=[[0,0.5],[1,0.5]];portConstraint=eastwest;fontSize=18;fontStyle=0;fontFamily=Times New Roman;fontColor=default;labelBackgroundColor=none;rounded=0;swimlaneLine=1;" parent="9thI-lEcoEZAPM-v9sQH-19" vertex="1">
          <mxGeometry width="350" height="70" as="geometry" />
        </mxCell>
        <mxCell id="9thI-lEcoEZAPM-v9sQH-21" value="&lt;meta charset=&quot;utf-8&quot; style=&quot;font-size: 18px;&quot;&gt;&lt;span style=&quot;font-size: 18px; font-style: normal; font-variant-ligatures: normal; font-variant-caps: normal; letter-spacing: normal; orphans: 2; text-align: center; text-indent: 0px; text-transform: none; widows: 2; word-spacing: 0px; -webkit-text-stroke-width: 0px; text-decoration-thickness: initial; text-decoration-style: initial; text-decoration-color: initial; float: none; display: inline !important;&quot;&gt;Thread&lt;/span&gt;&lt;br style=&quot;border-color: var(--border-color); font-size: 18px; font-style: normal; font-variant-ligatures: normal; font-variant-caps: normal; letter-spacing: normal; orphans: 2; text-align: center; text-indent: 0px; text-transform: none; widows: 2; word-spacing: 0px; -webkit-text-stroke-width: 0px; text-decoration-thickness: initial; text-decoration-style: initial; text-decoration-color: initial;&quot;&gt;&lt;span style=&quot;font-size: 18px; font-style: normal; font-variant-ligatures: normal; font-variant-caps: normal; letter-spacing: normal; orphans: 2; text-align: center; text-indent: 0px; text-transform: none; widows: 2; word-spacing: 0px; -webkit-text-stroke-width: 0px; text-decoration-thickness: initial; text-decoration-style: initial; text-decoration-color: initial; float: none; display: inline !important;&quot;&gt;`(0, 0)`&lt;/span&gt;" style="shape=partialRectangle;html=1;whiteSpace=wrap;connectable=0;strokeColor=inherit;overflow=hidden;fillColor=none;top=0;left=0;bottom=0;right=0;pointerEvents=1;fontSize=18;fontStyle=0;fontFamily=Times New Roman;fontColor=default;labelBackgroundColor=none;rounded=0;" parent="9thI-lEcoEZAPM-v9sQH-20" vertex="1">
          <mxGeometry width="70" height="70" as="geometry">
            <mxRectangle width="70" height="70" as="alternateBounds" />
          </mxGeometry>
        </mxCell>
        <mxCell id="9thI-lEcoEZAPM-v9sQH-22" value="&lt;span style=&quot;font-size: 18px; font-style: normal; font-variant-ligatures: normal; font-variant-caps: normal; letter-spacing: normal; orphans: 2; text-align: center; text-indent: 0px; text-transform: none; widows: 2; word-spacing: 0px; -webkit-text-stroke-width: 0px; text-decoration-thickness: initial; text-decoration-style: initial; text-decoration-color: initial; float: none; display: inline !important;&quot;&gt;Thread&lt;/span&gt;&lt;br style=&quot;border-color: var(--border-color); font-size: 18px; font-style: normal; font-variant-ligatures: normal; font-variant-caps: normal; letter-spacing: normal; orphans: 2; text-align: center; text-indent: 0px; text-transform: none; widows: 2; word-spacing: 0px; -webkit-text-stroke-width: 0px; text-decoration-thickness: initial; text-decoration-style: initial; text-decoration-color: initial;&quot;&gt;&lt;span style=&quot;font-size: 18px; font-style: normal; font-variant-ligatures: normal; font-variant-caps: normal; letter-spacing: normal; orphans: 2; text-align: center; text-indent: 0px; text-transform: none; widows: 2; word-spacing: 0px; -webkit-text-stroke-width: 0px; text-decoration-thickness: initial; text-decoration-style: initial; text-decoration-color: initial; float: none; display: inline !important;&quot;&gt;`(1, 0)`&lt;/span&gt;" style="shape=partialRectangle;html=1;whiteSpace=wrap;connectable=0;strokeColor=inherit;overflow=hidden;fillColor=none;top=0;left=0;bottom=0;right=0;pointerEvents=1;fontSize=18;fontStyle=0;fontFamily=Times New Roman;fontColor=default;labelBackgroundColor=none;rounded=0;" parent="9thI-lEcoEZAPM-v9sQH-20" vertex="1">
          <mxGeometry x="70" width="70" height="70" as="geometry">
            <mxRectangle width="70" height="70" as="alternateBounds" />
          </mxGeometry>
        </mxCell>
        <mxCell id="9thI-lEcoEZAPM-v9sQH-23" value="&lt;span style=&quot;font-size: 18px; font-style: normal; font-variant-ligatures: normal; font-variant-caps: normal; letter-spacing: normal; orphans: 2; text-align: center; text-indent: 0px; text-transform: none; widows: 2; word-spacing: 0px; -webkit-text-stroke-width: 0px; text-decoration-thickness: initial; text-decoration-style: initial; text-decoration-color: initial; float: none; display: inline !important;&quot;&gt;Thread&lt;/span&gt;&lt;br style=&quot;border-color: var(--border-color); font-size: 18px; font-style: normal; font-variant-ligatures: normal; font-variant-caps: normal; letter-spacing: normal; orphans: 2; text-align: center; text-indent: 0px; text-transform: none; widows: 2; word-spacing: 0px; -webkit-text-stroke-width: 0px; text-decoration-thickness: initial; text-decoration-style: initial; text-decoration-color: initial;&quot;&gt;&lt;span style=&quot;font-size: 18px; font-style: normal; font-variant-ligatures: normal; font-variant-caps: normal; letter-spacing: normal; orphans: 2; text-align: center; text-indent: 0px; text-transform: none; widows: 2; word-spacing: 0px; -webkit-text-stroke-width: 0px; text-decoration-thickness: initial; text-decoration-style: initial; text-decoration-color: initial; float: none; display: inline !important;&quot;&gt;`(2, 0)`&lt;/span&gt;" style="shape=partialRectangle;html=1;whiteSpace=wrap;connectable=0;strokeColor=inherit;overflow=hidden;fillColor=none;top=0;left=0;bottom=0;right=0;pointerEvents=1;fontSize=18;fontStyle=0;fontFamily=Times New Roman;fontColor=default;labelBackgroundColor=none;rounded=0;" parent="9thI-lEcoEZAPM-v9sQH-20" vertex="1">
          <mxGeometry x="140" width="70" height="70" as="geometry">
            <mxRectangle width="70" height="70" as="alternateBounds" />
          </mxGeometry>
        </mxCell>
        <mxCell id="9thI-lEcoEZAPM-v9sQH-24" value="&lt;span style=&quot;font-size: 18px; font-style: normal; font-variant-ligatures: normal; font-variant-caps: normal; letter-spacing: normal; orphans: 2; text-align: center; text-indent: 0px; text-transform: none; widows: 2; word-spacing: 0px; -webkit-text-stroke-width: 0px; text-decoration-thickness: initial; text-decoration-style: initial; text-decoration-color: initial; float: none; display: inline !important;&quot;&gt;Thread&lt;/span&gt;&lt;br style=&quot;border-color: var(--border-color); font-size: 18px; font-style: normal; font-variant-ligatures: normal; font-variant-caps: normal; letter-spacing: normal; orphans: 2; text-align: center; text-indent: 0px; text-transform: none; widows: 2; word-spacing: 0px; -webkit-text-stroke-width: 0px; text-decoration-thickness: initial; text-decoration-style: initial; text-decoration-color: initial;&quot;&gt;&lt;span style=&quot;font-size: 18px; font-style: normal; font-variant-ligatures: normal; font-variant-caps: normal; letter-spacing: normal; orphans: 2; text-align: center; text-indent: 0px; text-transform: none; widows: 2; word-spacing: 0px; -webkit-text-stroke-width: 0px; text-decoration-thickness: initial; text-decoration-style: initial; text-decoration-color: initial; float: none; display: inline !important;&quot;&gt;`(3, 0)`&lt;/span&gt;" style="shape=partialRectangle;html=1;whiteSpace=wrap;connectable=0;strokeColor=inherit;overflow=hidden;fillColor=none;top=0;left=0;bottom=0;right=0;pointerEvents=1;fontSize=18;fontStyle=0;fontFamily=Times New Roman;fontColor=default;labelBackgroundColor=none;rounded=0;shadow=0;" parent="9thI-lEcoEZAPM-v9sQH-20" vertex="1">
          <mxGeometry x="210" width="70" height="70" as="geometry">
            <mxRectangle width="70" height="70" as="alternateBounds" />
          </mxGeometry>
        </mxCell>
        <mxCell id="9thI-lEcoEZAPM-v9sQH-40" value="Thread&lt;br style=&quot;border-color: var(--border-color); font-size: 18px;&quot;&gt;&lt;span style=&quot;border-color: var(--border-color); font-size: 18px;&quot;&gt;`(4, 0)`&lt;/span&gt;" style="shape=partialRectangle;html=1;whiteSpace=wrap;connectable=0;strokeColor=inherit;overflow=hidden;fillColor=none;top=0;left=0;bottom=0;right=0;pointerEvents=1;fontSize=18;fontStyle=0;fontFamily=Times New Roman;fontColor=default;labelBackgroundColor=none;rounded=0;" parent="9thI-lEcoEZAPM-v9sQH-20" vertex="1">
          <mxGeometry x="280" width="70" height="70" as="geometry">
            <mxRectangle width="70" height="70" as="alternateBounds" />
          </mxGeometry>
        </mxCell>
        <mxCell id="9thI-lEcoEZAPM-v9sQH-25" value="" style="shape=tableRow;horizontal=0;startSize=0;swimlaneHead=0;swimlaneBody=0;strokeColor=inherit;top=0;left=0;bottom=0;right=0;collapsible=0;dropTarget=0;fillColor=none;points=[[0,0.5],[1,0.5]];portConstraint=eastwest;fontSize=18;fontStyle=0;fontFamily=Times New Roman;fontColor=default;labelBackgroundColor=none;rounded=0;" parent="9thI-lEcoEZAPM-v9sQH-19" vertex="1">
          <mxGeometry y="70" width="350" height="70" as="geometry" />
        </mxCell>
        <mxCell id="9thI-lEcoEZAPM-v9sQH-26" value="&lt;span style=&quot;font-size: 18px; font-style: normal; font-variant-ligatures: normal; font-variant-caps: normal; letter-spacing: normal; orphans: 2; text-align: center; text-indent: 0px; text-transform: none; widows: 2; word-spacing: 0px; -webkit-text-stroke-width: 0px; text-decoration-thickness: initial; text-decoration-style: initial; text-decoration-color: initial; float: none; display: inline !important;&quot;&gt;Thread&lt;/span&gt;&lt;br style=&quot;border-color: var(--border-color); font-size: 18px; font-style: normal; font-variant-ligatures: normal; font-variant-caps: normal; letter-spacing: normal; orphans: 2; text-align: center; text-indent: 0px; text-transform: none; widows: 2; word-spacing: 0px; -webkit-text-stroke-width: 0px; text-decoration-thickness: initial; text-decoration-style: initial; text-decoration-color: initial;&quot;&gt;&lt;span style=&quot;font-size: 18px; font-style: normal; font-variant-ligatures: normal; font-variant-caps: normal; letter-spacing: normal; orphans: 2; text-align: center; text-indent: 0px; text-transform: none; widows: 2; word-spacing: 0px; -webkit-text-stroke-width: 0px; text-decoration-thickness: initial; text-decoration-style: initial; text-decoration-color: initial; float: none; display: inline !important;&quot;&gt;`(0, 1)`&lt;/span&gt;" style="shape=partialRectangle;html=1;whiteSpace=wrap;connectable=0;strokeColor=inherit;overflow=hidden;fillColor=none;top=0;left=0;bottom=0;right=0;pointerEvents=1;fontSize=18;fontStyle=0;fontFamily=Times New Roman;fontColor=default;labelBackgroundColor=none;rounded=0;" parent="9thI-lEcoEZAPM-v9sQH-25" vertex="1">
          <mxGeometry width="70" height="70" as="geometry">
            <mxRectangle width="70" height="70" as="alternateBounds" />
          </mxGeometry>
        </mxCell>
        <mxCell id="9thI-lEcoEZAPM-v9sQH-27" value="Thread&lt;br style=&quot;border-color: var(--border-color); font-size: 18px;&quot;&gt;&lt;span style=&quot;border-color: var(--border-color); font-size: 18px;&quot;&gt;`(1, 1)`&lt;/span&gt;" style="shape=partialRectangle;html=1;whiteSpace=wrap;connectable=0;strokeColor=inherit;overflow=hidden;fillColor=none;top=0;left=0;bottom=0;right=0;pointerEvents=1;fontSize=18;fontStyle=0;fontFamily=Times New Roman;fontColor=default;labelBackgroundColor=none;rounded=0;" parent="9thI-lEcoEZAPM-v9sQH-25" vertex="1">
          <mxGeometry x="70" width="70" height="70" as="geometry">
            <mxRectangle width="70" height="70" as="alternateBounds" />
          </mxGeometry>
        </mxCell>
        <mxCell id="9thI-lEcoEZAPM-v9sQH-28" value="Thread&lt;br style=&quot;border-color: var(--border-color); font-size: 18px;&quot;&gt;&lt;span style=&quot;border-color: var(--border-color); font-size: 18px;&quot;&gt;`(2, 1)`&lt;/span&gt;" style="shape=partialRectangle;html=1;whiteSpace=wrap;connectable=0;strokeColor=inherit;overflow=hidden;fillColor=none;top=0;left=0;bottom=0;right=0;pointerEvents=1;fontSize=18;fontStyle=0;fontFamily=Times New Roman;fontColor=default;labelBackgroundColor=none;rounded=0;" parent="9thI-lEcoEZAPM-v9sQH-25" vertex="1">
          <mxGeometry x="140" width="70" height="70" as="geometry">
            <mxRectangle width="70" height="70" as="alternateBounds" />
          </mxGeometry>
        </mxCell>
        <mxCell id="9thI-lEcoEZAPM-v9sQH-29" value="Thread&lt;br style=&quot;border-color: var(--border-color); font-size: 18px;&quot;&gt;&lt;span style=&quot;border-color: var(--border-color); font-size: 18px;&quot;&gt;`(3, 1)`&lt;/span&gt;" style="shape=partialRectangle;html=1;whiteSpace=wrap;connectable=0;strokeColor=inherit;overflow=hidden;fillColor=none;top=0;left=0;bottom=0;right=0;pointerEvents=1;fontSize=18;fontStyle=0;fontFamily=Times New Roman;fontColor=default;labelBackgroundColor=none;rounded=0;" parent="9thI-lEcoEZAPM-v9sQH-25" vertex="1">
          <mxGeometry x="210" width="70" height="70" as="geometry">
            <mxRectangle width="70" height="70" as="alternateBounds" />
          </mxGeometry>
        </mxCell>
        <mxCell id="9thI-lEcoEZAPM-v9sQH-41" value="Thread&lt;br style=&quot;border-color: var(--border-color); font-size: 18px;&quot;&gt;&lt;span style=&quot;border-color: var(--border-color); font-size: 18px;&quot;&gt;`(4, 1)`&lt;/span&gt;" style="shape=partialRectangle;html=1;whiteSpace=wrap;connectable=0;strokeColor=inherit;overflow=hidden;fillColor=none;top=0;left=0;bottom=0;right=0;pointerEvents=1;fontSize=18;fontStyle=0;fontFamily=Times New Roman;fontColor=default;labelBackgroundColor=none;rounded=0;" parent="9thI-lEcoEZAPM-v9sQH-25" vertex="1">
          <mxGeometry x="280" width="70" height="70" as="geometry">
            <mxRectangle width="70" height="70" as="alternateBounds" />
          </mxGeometry>
        </mxCell>
        <mxCell id="9thI-lEcoEZAPM-v9sQH-30" value="" style="shape=tableRow;horizontal=0;startSize=0;swimlaneHead=0;swimlaneBody=0;strokeColor=inherit;top=0;left=0;bottom=0;right=0;collapsible=0;dropTarget=0;fillColor=none;points=[[0,0.5],[1,0.5]];portConstraint=eastwest;fontSize=18;fontStyle=0;fontFamily=Times New Roman;fontColor=default;labelBackgroundColor=none;rounded=0;" parent="9thI-lEcoEZAPM-v9sQH-19" vertex="1">
          <mxGeometry y="140" width="350" height="70" as="geometry" />
        </mxCell>
        <mxCell id="9thI-lEcoEZAPM-v9sQH-31" value="&lt;span style=&quot;font-size: 18px; font-style: normal; font-variant-ligatures: normal; font-variant-caps: normal; letter-spacing: normal; orphans: 2; text-align: center; text-indent: 0px; text-transform: none; widows: 2; word-spacing: 0px; -webkit-text-stroke-width: 0px; text-decoration-thickness: initial; text-decoration-style: initial; text-decoration-color: initial; float: none; display: inline !important;&quot;&gt;Thread&lt;/span&gt;&lt;br style=&quot;border-color: var(--border-color); font-size: 18px; font-style: normal; font-variant-ligatures: normal; font-variant-caps: normal; letter-spacing: normal; orphans: 2; text-align: center; text-indent: 0px; text-transform: none; widows: 2; word-spacing: 0px; -webkit-text-stroke-width: 0px; text-decoration-thickness: initial; text-decoration-style: initial; text-decoration-color: initial;&quot;&gt;&lt;span style=&quot;font-size: 18px; font-style: normal; font-variant-ligatures: normal; font-variant-caps: normal; letter-spacing: normal; orphans: 2; text-align: center; text-indent: 0px; text-transform: none; widows: 2; word-spacing: 0px; -webkit-text-stroke-width: 0px; text-decoration-thickness: initial; text-decoration-style: initial; text-decoration-color: initial; float: none; display: inline !important;&quot;&gt;`(0, 2)`&lt;/span&gt;" style="shape=partialRectangle;html=1;whiteSpace=wrap;connectable=0;strokeColor=inherit;overflow=hidden;fillColor=none;top=0;left=0;bottom=0;right=0;pointerEvents=1;fontSize=18;fontStyle=0;fontFamily=Times New Roman;fontColor=default;labelBackgroundColor=none;rounded=0;" parent="9thI-lEcoEZAPM-v9sQH-30" vertex="1">
          <mxGeometry width="70" height="70" as="geometry">
            <mxRectangle width="70" height="70" as="alternateBounds" />
          </mxGeometry>
        </mxCell>
        <mxCell id="9thI-lEcoEZAPM-v9sQH-32" value="Thread&lt;br style=&quot;border-color: var(--border-color); font-size: 18px;&quot;&gt;&lt;span style=&quot;border-color: var(--border-color); font-size: 18px;&quot;&gt;`(1, 2)`&lt;/span&gt;" style="shape=partialRectangle;html=1;whiteSpace=wrap;connectable=0;strokeColor=inherit;overflow=hidden;fillColor=none;top=0;left=0;bottom=0;right=0;pointerEvents=1;fontSize=18;fontStyle=0;fontFamily=Times New Roman;fontColor=default;labelBackgroundColor=none;rounded=0;" parent="9thI-lEcoEZAPM-v9sQH-30" vertex="1">
          <mxGeometry x="70" width="70" height="70" as="geometry">
            <mxRectangle width="70" height="70" as="alternateBounds" />
          </mxGeometry>
        </mxCell>
        <mxCell id="9thI-lEcoEZAPM-v9sQH-33" value="Thread&lt;br style=&quot;border-color: var(--border-color); font-size: 18px;&quot;&gt;&lt;span style=&quot;border-color: var(--border-color); font-size: 18px;&quot;&gt;`(2, 2)`&lt;/span&gt;" style="shape=partialRectangle;html=1;whiteSpace=wrap;connectable=0;strokeColor=inherit;overflow=hidden;fillColor=none;top=0;left=0;bottom=0;right=0;pointerEvents=1;fontSize=18;fontStyle=0;fontFamily=Times New Roman;fontColor=default;labelBackgroundColor=none;rounded=0;" parent="9thI-lEcoEZAPM-v9sQH-30" vertex="1">
          <mxGeometry x="140" width="70" height="70" as="geometry">
            <mxRectangle width="70" height="70" as="alternateBounds" />
          </mxGeometry>
        </mxCell>
        <mxCell id="9thI-lEcoEZAPM-v9sQH-34" value="Thread&lt;br style=&quot;border-color: var(--border-color); font-size: 18px;&quot;&gt;&lt;span style=&quot;border-color: var(--border-color); font-size: 18px;&quot;&gt;`(3, 2)`&lt;/span&gt;" style="shape=partialRectangle;html=1;whiteSpace=wrap;connectable=0;strokeColor=inherit;overflow=hidden;fillColor=none;top=0;left=0;bottom=0;right=0;pointerEvents=1;fontSize=18;fontStyle=0;fontFamily=Times New Roman;fontColor=default;labelBackgroundColor=none;rounded=0;" parent="9thI-lEcoEZAPM-v9sQH-30" vertex="1">
          <mxGeometry x="210" width="70" height="70" as="geometry">
            <mxRectangle width="70" height="70" as="alternateBounds" />
          </mxGeometry>
        </mxCell>
        <mxCell id="9thI-lEcoEZAPM-v9sQH-42" value="Thread&lt;br style=&quot;border-color: var(--border-color); font-size: 18px;&quot;&gt;&lt;span style=&quot;border-color: var(--border-color); font-size: 18px;&quot;&gt;`(4, 2)`&lt;/span&gt;" style="shape=partialRectangle;html=1;whiteSpace=wrap;connectable=0;strokeColor=inherit;overflow=hidden;fillColor=none;top=0;left=0;bottom=0;right=0;pointerEvents=1;fontSize=18;fontStyle=0;fontFamily=Times New Roman;fontColor=default;labelBackgroundColor=none;rounded=0;" parent="9thI-lEcoEZAPM-v9sQH-30" vertex="1">
          <mxGeometry x="280" width="70" height="70" as="geometry">
            <mxRectangle width="70" height="70" as="alternateBounds" />
          </mxGeometry>
        </mxCell>
      </root>
    </mxGraphModel>
  </diagram>
  <diagram id="JzQxiyMVarQOBTmu0Kp0" name="memory">
    <mxGraphModel dx="940" dy="626" grid="1" gridSize="10" guides="1" tooltips="1" connect="1" arrows="1" fold="1" page="0" pageScale="1" pageWidth="1169" pageHeight="827" background="none" math="1" shadow="0">
      <root>
        <object label="" id="0">
          <mxCell />
        </object>
        <mxCell id="1" parent="0" />
        <mxCell id="0ay5WQMKV5tWTxXjV2Ys-57" value="GPU Grid" style="rounded=0;whiteSpace=wrap;html=1;fontFamily=Times New Roman;fontSize=18;verticalAlign=top;align=left;fontStyle=0;spacingLeft=10;fillColor=#dae8fc;strokeColor=#6c8ebf;movable=1;resizable=1;rotatable=1;deletable=1;editable=1;locked=0;connectable=1;" parent="1" vertex="1">
          <mxGeometry x="130" y="80" width="730" height="560" as="geometry" />
        </mxCell>
        <mxCell id="0ay5WQMKV5tWTxXjV2Ys-24" value="Block `(0, 0)`" style="rounded=0;whiteSpace=wrap;html=1;align=left;fontStyle=0;spacingLeft=10;verticalAlign=top;fontSize=18;fontFamily=Times New Roman;fillColor=#fff2cc;strokeColor=#d6b656;movable=1;resizable=1;rotatable=1;deletable=1;editable=1;locked=0;connectable=1;" parent="1" vertex="1">
          <mxGeometry x="140" y="120" width="350" height="300" as="geometry" />
        </mxCell>
        <mxCell id="0ay5WQMKV5tWTxXjV2Ys-1" value="Shared Memory" style="rounded=0;whiteSpace=wrap;html=1;fontFamily=Times New Roman;fontSize=18;fillColor=#f8cecc;strokeColor=#b85450;movable=1;resizable=1;rotatable=1;deletable=1;editable=1;locked=0;connectable=1;fontStyle=0" parent="1" vertex="1">
          <mxGeometry x="150" y="160" width="330" height="40" as="geometry" />
        </mxCell>
        <mxCell id="0ay5WQMKV5tWTxXjV2Ys-3" value="Registers" style="rounded=0;whiteSpace=wrap;html=1;fontFamily=Times New Roman;fontSize=18;fillColor=#f8cecc;strokeColor=#b85450;movable=1;resizable=1;rotatable=1;deletable=1;editable=1;locked=0;connectable=1;fontStyle=0" parent="1" vertex="1">
          <mxGeometry x="150" y="210" width="120" height="40" as="geometry" />
        </mxCell>
        <mxCell id="0ay5WQMKV5tWTxXjV2Ys-4" value="Registers" style="rounded=0;whiteSpace=wrap;html=1;fontFamily=Times New Roman;fontSize=18;fillColor=#f8cecc;strokeColor=#b85450;movable=1;resizable=1;rotatable=1;deletable=1;editable=1;locked=0;connectable=1;fontStyle=0" parent="1" vertex="1">
          <mxGeometry x="320" y="210" width="120" height="40" as="geometry" />
        </mxCell>
        <mxCell id="0ay5WQMKV5tWTxXjV2Ys-5" value="Thread `(0, 0)`" style="rounded=0;whiteSpace=wrap;html=1;fontFamily=Times New Roman;fontSize=18;fillColor=#d5e8d4;strokeColor=#82b366;movable=1;resizable=1;rotatable=1;deletable=1;editable=1;locked=0;connectable=1;fontStyle=0" parent="1" vertex="1">
          <mxGeometry x="150" y="280" width="160" height="40" as="geometry" />
        </mxCell>
        <mxCell id="0ay5WQMKV5tWTxXjV2Ys-6" value="Thread `(1, 0)`" style="rounded=0;whiteSpace=wrap;html=1;fontFamily=Times New Roman;fontSize=18;fillColor=#d5e8d4;strokeColor=#82b366;movable=1;resizable=1;rotatable=1;deletable=1;editable=1;locked=0;connectable=1;fontStyle=0" parent="1" vertex="1">
          <mxGeometry x="320" y="280" width="160" height="40" as="geometry" />
        </mxCell>
        <mxCell id="0ay5WQMKV5tWTxXjV2Ys-7" value="Local Memory" style="rounded=0;whiteSpace=wrap;html=1;fontFamily=Times New Roman;fontSize=18;fillColor=#ffe6cc;strokeColor=#d79b00;movable=1;resizable=1;rotatable=1;deletable=1;editable=1;locked=0;connectable=1;fontStyle=0" parent="1" vertex="1">
          <mxGeometry x="150" y="350" width="80" height="60" as="geometry" />
        </mxCell>
        <mxCell id="0ay5WQMKV5tWTxXjV2Ys-8" value="Local Memory" style="rounded=0;whiteSpace=wrap;html=1;fontFamily=Times New Roman;fontSize=18;fillColor=#ffe6cc;strokeColor=#d79b00;movable=1;resizable=1;rotatable=1;deletable=1;editable=1;locked=0;connectable=1;fontStyle=0" parent="1" vertex="1">
          <mxGeometry x="320" y="350" width="80" height="60" as="geometry" />
        </mxCell>
        <mxCell id="0ay5WQMKV5tWTxXjV2Ys-9" value="Global &lt;br style=&quot;font-size: 18px;&quot;&gt;Memory" style="rounded=0;whiteSpace=wrap;html=1;fontFamily=Times New Roman;fontSize=18;align=left;spacingLeft=10;fillColor=#ffe6cc;strokeColor=#d79b00;movable=1;resizable=1;rotatable=1;deletable=1;editable=1;locked=0;connectable=1;fontStyle=0" parent="1" vertex="1">
          <mxGeometry x="140" y="430" width="710" height="60" as="geometry" />
        </mxCell>
        <mxCell id="0ay5WQMKV5tWTxXjV2Ys-10" value="Constant&lt;br style=&quot;font-size: 18px;&quot;&gt;Memory" style="rounded=0;whiteSpace=wrap;html=1;fontFamily=Times New Roman;fontSize=18;align=left;spacingLeft=10;fillColor=#ffe6cc;strokeColor=#d79b00;movable=1;resizable=1;rotatable=1;deletable=1;editable=1;locked=0;connectable=1;fontStyle=0" parent="1" vertex="1">
          <mxGeometry x="140" y="500" width="710" height="60" as="geometry" />
        </mxCell>
        <mxCell id="0ay5WQMKV5tWTxXjV2Ys-11" value="Texture&lt;br style=&quot;font-size: 18px;&quot;&gt;Memory" style="rounded=0;whiteSpace=wrap;html=1;fontFamily=Times New Roman;fontSize=18;align=left;spacingLeft=10;fillColor=#ffe6cc;strokeColor=#d79b00;movable=1;resizable=1;rotatable=1;deletable=1;editable=1;locked=0;connectable=1;fontStyle=0" parent="1" vertex="1">
          <mxGeometry x="140" y="570" width="710" height="60" as="geometry" />
        </mxCell>
        <mxCell id="0ay5WQMKV5tWTxXjV2Ys-37" value="Block `(0, 0)`" style="rounded=0;whiteSpace=wrap;html=1;align=left;fontStyle=0;spacingLeft=10;verticalAlign=top;fontSize=18;fontFamily=Times New Roman;fillColor=#fff2cc;strokeColor=#d6b656;movable=1;resizable=1;rotatable=1;deletable=1;editable=1;locked=0;connectable=1;" parent="1" vertex="1">
          <mxGeometry x="500" y="120" width="350" height="300" as="geometry" />
        </mxCell>
        <mxCell id="0ay5WQMKV5tWTxXjV2Ys-38" value="Shared Memory" style="rounded=0;whiteSpace=wrap;html=1;fontFamily=Times New Roman;fontSize=18;fillColor=#f8cecc;strokeColor=#b85450;movable=1;resizable=1;rotatable=1;deletable=1;editable=1;locked=0;connectable=1;fontStyle=0" parent="1" vertex="1">
          <mxGeometry x="510" y="160" width="330" height="40" as="geometry" />
        </mxCell>
        <mxCell id="0ay5WQMKV5tWTxXjV2Ys-39" value="Registers" style="rounded=0;whiteSpace=wrap;html=1;fontFamily=Times New Roman;fontSize=18;fillColor=#f8cecc;strokeColor=#b85450;movable=1;resizable=1;rotatable=1;deletable=1;editable=1;locked=0;connectable=1;fontStyle=0" parent="1" vertex="1">
          <mxGeometry x="510" y="210" width="120" height="40" as="geometry" />
        </mxCell>
        <mxCell id="0ay5WQMKV5tWTxXjV2Ys-40" value="Registers" style="rounded=0;whiteSpace=wrap;html=1;fontFamily=Times New Roman;fontSize=18;fillColor=#f8cecc;strokeColor=#b85450;movable=1;resizable=1;rotatable=1;deletable=1;editable=1;locked=0;connectable=1;fontStyle=0" parent="1" vertex="1">
          <mxGeometry x="680" y="210" width="120" height="40" as="geometry" />
        </mxCell>
        <mxCell id="0ay5WQMKV5tWTxXjV2Ys-41" value="Thread `(0, 0)`" style="rounded=0;whiteSpace=wrap;html=1;fontFamily=Times New Roman;fontSize=18;fillColor=#d5e8d4;strokeColor=#82b366;movable=1;resizable=1;rotatable=1;deletable=1;editable=1;locked=0;connectable=1;fontStyle=0" parent="1" vertex="1">
          <mxGeometry x="510" y="280" width="160" height="40" as="geometry" />
        </mxCell>
        <mxCell id="0ay5WQMKV5tWTxXjV2Ys-42" value="Thread `(1, 0)`" style="rounded=0;whiteSpace=wrap;html=1;fontFamily=Times New Roman;fontSize=18;fillColor=#d5e8d4;strokeColor=#82b366;movable=1;resizable=1;rotatable=1;deletable=1;editable=1;locked=0;connectable=1;fontStyle=0" parent="1" vertex="1">
          <mxGeometry x="680" y="280" width="160" height="40" as="geometry" />
        </mxCell>
        <mxCell id="0ay5WQMKV5tWTxXjV2Ys-43" value="Local Memory" style="rounded=0;whiteSpace=wrap;html=1;fontFamily=Times New Roman;fontSize=18;fillColor=#ffe6cc;strokeColor=#d79b00;movable=1;resizable=1;rotatable=1;deletable=1;editable=1;locked=0;connectable=1;fontStyle=0" parent="1" vertex="1">
          <mxGeometry x="510" y="350" width="80" height="60" as="geometry" />
        </mxCell>
        <mxCell id="0ay5WQMKV5tWTxXjV2Ys-44" value="Local Memory" style="rounded=0;whiteSpace=wrap;html=1;fontFamily=Times New Roman;fontSize=18;fillColor=#ffe6cc;strokeColor=#d79b00;movable=1;resizable=1;rotatable=1;deletable=1;editable=1;locked=0;connectable=1;fontStyle=0" parent="1" vertex="1">
          <mxGeometry x="680" y="350" width="80" height="60" as="geometry" />
        </mxCell>
        <mxCell id="0ay5WQMKV5tWTxXjV2Ys-58" value="CPU" style="rounded=0;whiteSpace=wrap;html=1;fontFamily=Times New Roman;fontSize=18;verticalAlign=top;align=center;fontStyle=0;spacingLeft=0;fillColor=#dae8fc;strokeColor=#6c8ebf;movable=1;resizable=1;rotatable=1;deletable=1;editable=1;locked=0;connectable=1;" parent="1" vertex="1">
          <mxGeometry x="30" y="430" width="70" height="210" as="geometry" />
        </mxCell>
        <mxCell id="0ay5WQMKV5tWTxXjV2Ys-22" value="Lines" parent="0" />
        <mxCell id="0ay5WQMKV5tWTxXjV2Ys-17" value="" style="endArrow=classic;startArrow=classic;html=1;rounded=0;startFill=1;strokeWidth=2;movable=1;resizable=1;rotatable=1;deletable=1;editable=1;locked=0;connectable=1;fontFamily=Times New Roman;fontSize=18;fontStyle=1" parent="0ay5WQMKV5tWTxXjV2Ys-22" edge="1">
          <mxGeometry width="50" height="50" relative="1" as="geometry">
            <mxPoint x="190" y="350" as="sourcePoint" />
            <mxPoint x="190" y="320" as="targetPoint" />
          </mxGeometry>
        </mxCell>
        <mxCell id="0ay5WQMKV5tWTxXjV2Ys-13" value="" style="endArrow=classic;startArrow=classic;html=1;rounded=0;startFill=1;strokeWidth=2;movable=1;resizable=1;rotatable=1;deletable=1;editable=1;locked=0;connectable=1;fontFamily=Times New Roman;fontSize=18;fontStyle=1" parent="0ay5WQMKV5tWTxXjV2Ys-22" edge="1">
          <mxGeometry width="50" height="50" relative="1" as="geometry">
            <mxPoint x="250" y="430" as="sourcePoint" />
            <mxPoint x="250" y="320" as="targetPoint" />
          </mxGeometry>
        </mxCell>
        <mxCell id="0ay5WQMKV5tWTxXjV2Ys-14" value="" style="endArrow=classic;startArrow=none;html=1;rounded=0;startFill=0;strokeWidth=2;movable=1;resizable=1;rotatable=1;deletable=1;editable=1;locked=0;connectable=1;fontFamily=Times New Roman;fontSize=18;fontStyle=1" parent="0ay5WQMKV5tWTxXjV2Ys-22" edge="1">
          <mxGeometry width="50" height="50" relative="1" as="geometry">
            <mxPoint x="270" y="500" as="sourcePoint" />
            <mxPoint x="270" y="320" as="targetPoint" />
          </mxGeometry>
        </mxCell>
        <mxCell id="0ay5WQMKV5tWTxXjV2Ys-15" value="" style="endArrow=classic;startArrow=none;html=1;rounded=0;startFill=0;strokeWidth=2;movable=1;resizable=1;rotatable=1;deletable=1;editable=1;locked=0;connectable=1;fontFamily=Times New Roman;fontSize=18;fontStyle=1" parent="0ay5WQMKV5tWTxXjV2Ys-22" edge="1">
          <mxGeometry width="50" height="50" relative="1" as="geometry">
            <mxPoint x="290" y="570" as="sourcePoint" />
            <mxPoint x="290" y="320" as="targetPoint" />
          </mxGeometry>
        </mxCell>
        <mxCell id="0ay5WQMKV5tWTxXjV2Ys-21" value="" style="endArrow=classic;startArrow=classic;html=1;rounded=0;startFill=1;strokeWidth=2;movable=1;resizable=1;rotatable=1;deletable=1;editable=1;locked=0;connectable=1;fontFamily=Times New Roman;fontSize=18;fontStyle=1" parent="0ay5WQMKV5tWTxXjV2Ys-22" edge="1">
          <mxGeometry width="50" height="50" relative="1" as="geometry">
            <mxPoint x="360" y="350" as="sourcePoint" />
            <mxPoint x="360" y="320" as="targetPoint" />
          </mxGeometry>
        </mxCell>
        <mxCell id="0ay5WQMKV5tWTxXjV2Ys-18" value="" style="endArrow=classic;startArrow=classic;html=1;rounded=0;startFill=1;strokeWidth=2;movable=1;resizable=1;rotatable=1;deletable=1;editable=1;locked=0;connectable=1;fontFamily=Times New Roman;fontSize=18;fontStyle=1" parent="0ay5WQMKV5tWTxXjV2Ys-22" edge="1">
          <mxGeometry width="50" height="50" relative="1" as="geometry">
            <mxPoint x="420" y="430" as="sourcePoint" />
            <mxPoint x="420" y="320" as="targetPoint" />
          </mxGeometry>
        </mxCell>
        <mxCell id="0ay5WQMKV5tWTxXjV2Ys-19" value="" style="endArrow=classic;startArrow=none;html=1;rounded=0;startFill=0;strokeWidth=2;movable=1;resizable=1;rotatable=1;deletable=1;editable=1;locked=0;connectable=1;fontFamily=Times New Roman;fontSize=18;fontStyle=1" parent="0ay5WQMKV5tWTxXjV2Ys-22" edge="1">
          <mxGeometry width="50" height="50" relative="1" as="geometry">
            <mxPoint x="440" y="500" as="sourcePoint" />
            <mxPoint x="440" y="320" as="targetPoint" />
          </mxGeometry>
        </mxCell>
        <mxCell id="0ay5WQMKV5tWTxXjV2Ys-20" value="" style="endArrow=classic;startArrow=none;html=1;rounded=0;startFill=0;strokeWidth=2;movable=1;resizable=1;rotatable=1;deletable=1;editable=1;locked=0;connectable=1;fontFamily=Times New Roman;fontSize=18;fontStyle=1" parent="0ay5WQMKV5tWTxXjV2Ys-22" edge="1">
          <mxGeometry width="50" height="50" relative="1" as="geometry">
            <mxPoint x="460" y="570" as="sourcePoint" />
            <mxPoint x="460" y="320" as="targetPoint" />
          </mxGeometry>
        </mxCell>
        <mxCell id="0ay5WQMKV5tWTxXjV2Ys-48" value="" style="endArrow=classic;startArrow=classic;html=1;rounded=0;startFill=1;strokeWidth=2;movable=1;resizable=1;rotatable=1;deletable=1;editable=1;locked=0;connectable=1;fontFamily=Times New Roman;fontSize=18;fontStyle=1" parent="0ay5WQMKV5tWTxXjV2Ys-22" edge="1">
          <mxGeometry width="50" height="50" relative="1" as="geometry">
            <mxPoint x="820" y="280" as="sourcePoint" />
            <mxPoint x="820" y="200" as="targetPoint" />
          </mxGeometry>
        </mxCell>
        <mxCell id="0ay5WQMKV5tWTxXjV2Ys-47" value="" style="endArrow=classic;startArrow=classic;html=1;rounded=0;startFill=1;strokeWidth=2;movable=1;resizable=1;rotatable=1;deletable=1;editable=1;locked=0;connectable=1;fontFamily=Times New Roman;fontSize=18;fontStyle=1" parent="0ay5WQMKV5tWTxXjV2Ys-22" edge="1">
          <mxGeometry width="50" height="50" relative="1" as="geometry">
            <mxPoint x="650" y="280" as="sourcePoint" />
            <mxPoint x="650" y="200" as="targetPoint" />
          </mxGeometry>
        </mxCell>
        <mxCell id="0ay5WQMKV5tWTxXjV2Ys-46" value="" style="endArrow=classic;startArrow=classic;html=1;rounded=0;startFill=1;strokeWidth=2;movable=1;resizable=1;rotatable=1;deletable=1;editable=1;locked=0;connectable=1;fontFamily=Times New Roman;fontSize=18;fontStyle=1" parent="0ay5WQMKV5tWTxXjV2Ys-22" edge="1">
          <mxGeometry width="50" height="50" relative="1" as="geometry">
            <mxPoint x="739.69" y="280" as="sourcePoint" />
            <mxPoint x="739.69" y="250" as="targetPoint" />
          </mxGeometry>
        </mxCell>
        <mxCell id="0ay5WQMKV5tWTxXjV2Ys-45" value="" style="endArrow=classic;startArrow=classic;html=1;rounded=0;startFill=1;strokeWidth=2;movable=1;resizable=1;rotatable=1;deletable=1;editable=1;locked=0;connectable=1;fontFamily=Times New Roman;fontSize=18;fontStyle=1" parent="0ay5WQMKV5tWTxXjV2Ys-22" edge="1">
          <mxGeometry width="50" height="50" relative="1" as="geometry">
            <mxPoint x="569.69" y="280" as="sourcePoint" />
            <mxPoint x="569.69" y="250" as="targetPoint" />
          </mxGeometry>
        </mxCell>
        <mxCell id="0ay5WQMKV5tWTxXjV2Ys-49" value="" style="endArrow=classic;startArrow=classic;html=1;rounded=0;startFill=1;strokeWidth=2;movable=1;resizable=1;rotatable=1;deletable=1;editable=1;locked=0;connectable=1;fontFamily=Times New Roman;fontSize=18;fontStyle=1" parent="0ay5WQMKV5tWTxXjV2Ys-22" edge="1">
          <mxGeometry width="50" height="50" relative="1" as="geometry">
            <mxPoint x="550" y="350" as="sourcePoint" />
            <mxPoint x="550" y="320" as="targetPoint" />
          </mxGeometry>
        </mxCell>
        <mxCell id="0ay5WQMKV5tWTxXjV2Ys-50" value="" style="endArrow=classic;startArrow=classic;html=1;rounded=0;startFill=1;strokeWidth=2;movable=1;resizable=1;rotatable=1;deletable=1;editable=1;locked=0;connectable=1;fontFamily=Times New Roman;fontSize=18;fontStyle=1" parent="0ay5WQMKV5tWTxXjV2Ys-22" edge="1">
          <mxGeometry width="50" height="50" relative="1" as="geometry">
            <mxPoint x="610" y="430" as="sourcePoint" />
            <mxPoint x="610" y="320" as="targetPoint" />
          </mxGeometry>
        </mxCell>
        <mxCell id="0ay5WQMKV5tWTxXjV2Ys-51" value="" style="endArrow=classic;startArrow=none;html=1;rounded=0;startFill=0;strokeWidth=2;movable=1;resizable=1;rotatable=1;deletable=1;editable=1;locked=0;connectable=1;fontFamily=Times New Roman;fontSize=18;fontStyle=1" parent="0ay5WQMKV5tWTxXjV2Ys-22" edge="1">
          <mxGeometry width="50" height="50" relative="1" as="geometry">
            <mxPoint x="630" y="500" as="sourcePoint" />
            <mxPoint x="630" y="320" as="targetPoint" />
          </mxGeometry>
        </mxCell>
        <mxCell id="0ay5WQMKV5tWTxXjV2Ys-52" value="" style="endArrow=classic;startArrow=none;html=1;rounded=0;startFill=0;strokeWidth=2;movable=1;resizable=1;rotatable=1;deletable=1;editable=1;locked=0;connectable=1;fontFamily=Times New Roman;fontSize=18;fontStyle=1" parent="0ay5WQMKV5tWTxXjV2Ys-22" edge="1">
          <mxGeometry width="50" height="50" relative="1" as="geometry">
            <mxPoint x="650" y="570" as="sourcePoint" />
            <mxPoint x="650" y="320" as="targetPoint" />
          </mxGeometry>
        </mxCell>
        <mxCell id="0ay5WQMKV5tWTxXjV2Ys-53" value="" style="endArrow=classic;startArrow=classic;html=1;rounded=0;startFill=1;strokeWidth=2;movable=1;resizable=1;rotatable=1;deletable=1;editable=1;locked=0;connectable=1;fontFamily=Times New Roman;fontSize=18;fontStyle=1" parent="0ay5WQMKV5tWTxXjV2Ys-22" edge="1">
          <mxGeometry width="50" height="50" relative="1" as="geometry">
            <mxPoint x="720" y="350" as="sourcePoint" />
            <mxPoint x="720" y="320" as="targetPoint" />
          </mxGeometry>
        </mxCell>
        <mxCell id="0ay5WQMKV5tWTxXjV2Ys-54" value="" style="endArrow=classic;startArrow=classic;html=1;rounded=0;startFill=1;strokeWidth=2;movable=1;resizable=1;rotatable=1;deletable=1;editable=1;locked=0;connectable=1;fontFamily=Times New Roman;fontSize=18;fontStyle=1" parent="0ay5WQMKV5tWTxXjV2Ys-22" edge="1">
          <mxGeometry width="50" height="50" relative="1" as="geometry">
            <mxPoint x="780" y="430" as="sourcePoint" />
            <mxPoint x="780" y="320" as="targetPoint" />
          </mxGeometry>
        </mxCell>
        <mxCell id="0ay5WQMKV5tWTxXjV2Ys-55" value="" style="endArrow=classic;startArrow=none;html=1;rounded=0;startFill=0;strokeWidth=2;movable=1;resizable=1;rotatable=1;deletable=1;editable=1;locked=0;connectable=1;fontFamily=Times New Roman;fontSize=18;fontStyle=1" parent="0ay5WQMKV5tWTxXjV2Ys-22" edge="1">
          <mxGeometry width="50" height="50" relative="1" as="geometry">
            <mxPoint x="800" y="500" as="sourcePoint" />
            <mxPoint x="800" y="320" as="targetPoint" />
          </mxGeometry>
        </mxCell>
        <mxCell id="0ay5WQMKV5tWTxXjV2Ys-56" value="" style="endArrow=classic;startArrow=none;html=1;rounded=0;startFill=0;strokeWidth=2;movable=1;resizable=1;rotatable=1;deletable=1;editable=1;locked=0;connectable=1;fontFamily=Times New Roman;fontSize=18;fontStyle=1" parent="0ay5WQMKV5tWTxXjV2Ys-22" edge="1">
          <mxGeometry width="50" height="50" relative="1" as="geometry">
            <mxPoint x="820" y="570" as="sourcePoint" />
            <mxPoint x="820" y="320" as="targetPoint" />
          </mxGeometry>
        </mxCell>
        <mxCell id="0ay5WQMKV5tWTxXjV2Ys-36" value="" style="endArrow=classic;startArrow=classic;html=1;rounded=0;startFill=1;strokeWidth=2;movable=1;resizable=1;rotatable=1;deletable=1;editable=1;locked=0;connectable=1;fontFamily=Times New Roman;fontSize=18;fontStyle=1" parent="0ay5WQMKV5tWTxXjV2Ys-22" edge="1">
          <mxGeometry width="50" height="50" relative="1" as="geometry">
            <mxPoint x="460" y="280" as="sourcePoint" />
            <mxPoint x="460" y="200" as="targetPoint" />
          </mxGeometry>
        </mxCell>
        <mxCell id="0ay5WQMKV5tWTxXjV2Ys-34" value="" style="endArrow=classic;startArrow=classic;html=1;rounded=0;startFill=1;strokeWidth=2;movable=1;resizable=1;rotatable=1;deletable=1;editable=1;locked=0;connectable=1;fontFamily=Times New Roman;fontSize=18;fontStyle=1" parent="0ay5WQMKV5tWTxXjV2Ys-22" edge="1">
          <mxGeometry width="50" height="50" relative="1" as="geometry">
            <mxPoint x="379.69" y="280" as="sourcePoint" />
            <mxPoint x="379.69" y="250" as="targetPoint" />
          </mxGeometry>
        </mxCell>
        <mxCell id="0ay5WQMKV5tWTxXjV2Ys-35" value="" style="endArrow=classic;startArrow=classic;html=1;rounded=0;startFill=1;strokeWidth=2;movable=1;resizable=1;rotatable=1;deletable=1;editable=1;locked=0;connectable=1;fontFamily=Times New Roman;fontSize=18;fontStyle=1" parent="0ay5WQMKV5tWTxXjV2Ys-22" edge="1">
          <mxGeometry width="50" height="50" relative="1" as="geometry">
            <mxPoint x="290" y="280" as="sourcePoint" />
            <mxPoint x="290" y="200" as="targetPoint" />
          </mxGeometry>
        </mxCell>
        <mxCell id="0ay5WQMKV5tWTxXjV2Ys-33" value="" style="endArrow=classic;startArrow=classic;html=1;rounded=0;startFill=1;strokeWidth=2;movable=1;resizable=1;rotatable=1;deletable=1;editable=1;locked=0;connectable=1;fontFamily=Times New Roman;fontSize=18;fontStyle=1" parent="0ay5WQMKV5tWTxXjV2Ys-22" edge="1">
          <mxGeometry width="50" height="50" relative="1" as="geometry">
            <mxPoint x="209.69" y="280" as="sourcePoint" />
            <mxPoint x="209.69" y="250" as="targetPoint" />
          </mxGeometry>
        </mxCell>
        <mxCell id="0ay5WQMKV5tWTxXjV2Ys-59" value="" style="endArrow=classic;startArrow=classic;html=1;rounded=0;movable=1;resizable=1;rotatable=1;deletable=1;editable=1;locked=0;connectable=1;strokeWidth=2;fontFamily=Times New Roman;fontSize=18;fontStyle=1" parent="0ay5WQMKV5tWTxXjV2Ys-22" edge="1">
          <mxGeometry width="50" height="50" relative="1" as="geometry">
            <mxPoint x="100" y="460" as="sourcePoint" />
            <mxPoint x="140" y="460" as="targetPoint" />
          </mxGeometry>
        </mxCell>
        <mxCell id="0ay5WQMKV5tWTxXjV2Ys-60" value="" style="endArrow=classic;startArrow=classic;html=1;rounded=0;movable=1;resizable=1;rotatable=1;deletable=1;editable=1;locked=0;connectable=1;strokeWidth=2;fontFamily=Times New Roman;fontSize=18;fontStyle=1" parent="0ay5WQMKV5tWTxXjV2Ys-22" edge="1">
          <mxGeometry width="50" height="50" relative="1" as="geometry">
            <mxPoint x="100" y="530" as="sourcePoint" />
            <mxPoint x="140" y="530" as="targetPoint" />
          </mxGeometry>
        </mxCell>
        <mxCell id="0ay5WQMKV5tWTxXjV2Ys-61" value="" style="endArrow=classic;startArrow=classic;html=1;rounded=0;movable=1;resizable=1;rotatable=1;deletable=1;editable=1;locked=0;connectable=1;strokeWidth=2;fontFamily=Times New Roman;fontSize=18;fontStyle=1" parent="0ay5WQMKV5tWTxXjV2Ys-22" edge="1">
          <mxGeometry width="50" height="50" relative="1" as="geometry">
            <mxPoint x="100" y="600" as="sourcePoint" />
            <mxPoint x="140" y="600" as="targetPoint" />
          </mxGeometry>
        </mxCell>
      </root>
    </mxGraphModel>
  </diagram>
</mxfile>
